# xmcd
#
# Track frame offsets:
#	150
#	12102
#	23652
#	35660
#	47875
#	61492
#	74705
#	88525
#	97657
#	109704
#	130597
#	143957
#	155247
#
# Disc length: 2310 seconds
#
# Revision: 1
# Processed by: cddbd v1.4PL0 Copyright (c) Steve Scherf et al.
# Submitted via: EasyCDDAExtractor 5.0.7
#
DISCID=ad09040d
DTITLE=The Kathy Kallick Band - Walkin In My Shoes
DYEAR=1900
DGENRE=Country
TTITLE0=Walkin' In My Shoes
TTITLE1=I Want to Do It Again
TTITLE2=Rocky Road Blues
TTITLE3=Don't Mind Me
TTITLE4=Tennessee Breakdown
TTITLE5=I'll Jump The Mississipi
TTITLE6=Dark Moon
TTITLE7=When I Wake To Sleep No More
TTITLE8=Who's Goin Down To Town
TTITLE9=Neon Chief/Fire In The East
TTITLE10=Mods of a Fool
TTITLE11=Wings
TTITLE12=After All
EXTD=
EXTT0=
EXTT1=
EXTT2=
EXTT3=
EXTT4=
EXTT5=
EXTT6=
EXTT7=
EXTT8=
EXTT9=
EXTT10=
EXTT11=
EXTT12=
PLAYORDER=
